<svg width="20" height="23" viewBox="0 0 20 23" fill="none" xmlns="http://www.w3.org/2000/svg">
<g clip-path="url(#clip0)">
<path d="M11.4955 19.9947L10.5045 20.992C10.0848 21.4142 9.40624 21.4142 8.99106 20.992L0.312489 12.2636C-0.107154 11.8414 -0.107154 11.1586 0.312489 10.7408L8.99106 2.00798C9.4107 1.58572 10.0893 1.58572 10.5045 2.00798L11.4955 3.00525C11.9196 3.43201 11.9107 4.1283 11.4777 4.54607L6.0982 9.7031H18.9286C19.5223 9.7031 20 10.1838 20 10.7812V12.2187C20 12.8162 19.5223 13.2969 18.9286 13.2969H6.0982L11.4777 18.4539C11.9152 18.8717 11.9241 19.5679 11.4955 19.9947Z" fill="#4F4F4F"/>
</g>
<defs>
<clipPath id="clip0">
<rect width="20" height="23" fill="white"/>
</clipPath>
</defs>
</svg>
