<svg width="17" height="15" viewBox="0 0 17 15" fill="none" xmlns="http://www.w3.org/2000/svg">
<path d="M8.49998 4.21875C8.18717 4.2236 7.87668 4.27293 7.57797 4.36523C7.71614 4.60644 7.78971 4.87878 7.79165 5.15625C7.79165 5.3717 7.7489 5.58504 7.66584 5.78409C7.58278 5.98314 7.46104 6.164 7.30756 6.31635C7.15409 6.46869 6.97189 6.58954 6.77136 6.67199C6.57084 6.75444 6.35592 6.79688 6.13887 6.79688C5.85935 6.79495 5.58499 6.72192 5.342 6.58477C5.15028 7.24476 5.17263 7.94791 5.40586 8.5946C5.6391 9.24129 6.0714 9.79875 6.64154 10.188C7.21168 10.5773 7.89075 10.7786 8.58255 10.7634C9.27436 10.7483 9.94383 10.5175 10.4961 10.1037C11.0485 9.6899 11.4556 9.11409 11.6599 8.45783C11.8642 7.80157 11.8554 7.09813 11.6346 6.44715C11.4138 5.79617 10.9922 5.23066 10.4296 4.83072C9.86704 4.43078 9.19195 4.21668 8.49998 4.21875ZM16.8973 7.07227C15.2967 3.97236 12.1281 1.875 8.49998 1.875C4.87184 1.875 1.70234 3.97383 0.102692 7.07256C0.0351768 7.20513 0 7.3516 0 7.50015C0 7.64869 0.0351768 7.79516 0.102692 7.92773C1.70323 11.0276 4.87184 13.125 8.49998 13.125C12.1281 13.125 15.2976 11.0262 16.8973 7.92744C16.9648 7.79487 17 7.6484 17 7.49985C17 7.35131 16.9648 7.20484 16.8973 7.07227ZM8.49998 11.7188C5.58844 11.7188 2.9192 10.1074 1.47774 7.5C2.9192 4.89258 5.58814 3.28125 8.49998 3.28125C11.4118 3.28125 14.0808 4.89258 15.5222 7.5C14.0811 10.1074 11.4118 11.7188 8.49998 11.7188Z" fill="#BDBDBD"/>
</svg>
