<svg width="255" height="196" viewBox="0 0 255 196" fill="none" xmlns="http://www.w3.org/2000/svg">
<path d="M58.716 135.643L78.459 104.586L34.244 76.4603L11.4102 112.38L47.9816 135.643H58.716Z" fill="#F0F0F0"/>
<path d="M86.6937 145.332H37.7896V135.485H86.6937V145.332ZM38.4247 144.697H86.0585V136.12H38.4247V144.697Z" fill="#3F3D56"/>
<path d="M80.66 143.585C82.4139 143.585 83.8356 142.163 83.8356 140.408C83.8356 138.654 82.4139 137.232 80.66 137.232C78.9062 137.232 77.4844 138.654 77.4844 140.408C77.4844 142.163 78.9062 143.585 80.66 143.585Z" fill="#07689F"/>
<path d="M71.7684 143.585C73.5222 143.585 74.9439 142.163 74.9439 140.408C74.9439 138.654 73.5222 137.232 71.7684 137.232C70.0145 137.232 68.5928 138.654 68.5928 140.408C68.5928 142.163 70.0145 143.585 71.7684 143.585Z" fill="#07689F"/>
<path d="M62.8767 143.585C64.6305 143.585 66.0523 142.163 66.0523 140.408C66.0523 138.654 64.6305 137.232 62.8767 137.232C61.1229 137.232 59.7011 138.654 59.7011 140.408C59.7011 142.163 61.1229 143.585 62.8767 143.585Z" fill="#07689F"/>
<path d="M53.985 143.585C55.7389 143.585 57.1606 142.163 57.1606 140.408C57.1606 138.654 55.7389 137.232 53.985 137.232C52.2312 137.232 50.8094 138.654 50.8094 140.408C50.8094 142.163 52.2312 143.585 53.985 143.585Z" fill="#07689F"/>
<path d="M45.0934 143.585C46.8472 143.585 48.269 142.163 48.269 140.408C48.269 138.654 46.8472 137.232 45.0934 137.232C43.3396 137.232 41.9178 138.654 41.9178 140.408C41.9178 142.163 43.3396 143.585 45.0934 143.585Z" fill="#07689F"/>
<path d="M144.807 35.8963V11.7536H156.874V0H97.8082V59.0859H148.3V53.309C148.3 52.2321 148.512 51.1657 148.924 50.1708C149.336 49.1759 149.94 48.2719 150.701 47.5104C151.462 46.749 152.366 46.1449 153.361 45.7328C154.355 45.3207 155.421 45.1086 156.498 45.1086H156.874V35.8963H144.807Z" fill="#F0F0F0"/>
<path d="M210.224 152.48H170.847V160.739H210.224V152.48Z" fill="#07689F"/>
<path d="M218.798 111.818H161.003V119.442H218.798V111.818Z" fill="#F0F0F0"/>
<path d="M247.061 195.365H0V196H247.061V195.365Z" fill="#3F3D56"/>
<path d="M228.701 196H156.498C154.24 195.997 152.076 195.099 150.479 193.502C148.883 191.905 147.985 189.74 147.983 187.482V53.309C147.985 51.0506 148.883 48.8855 150.479 47.2886C152.076 45.6918 154.24 44.7935 156.498 44.7909H228.701C230.959 44.7935 233.123 45.6918 234.72 47.2886C236.316 48.8855 237.214 51.0506 237.217 53.309V187.482C237.214 189.74 236.316 191.905 234.72 193.502C233.123 195.099 230.959 195.997 228.701 196ZM156.498 45.4263C154.409 45.4286 152.406 46.2599 150.928 47.7377C149.451 49.2155 148.62 51.2191 148.618 53.309V187.482C148.62 189.572 149.451 191.575 150.928 193.053C152.406 194.531 154.409 195.362 156.498 195.365H228.701C230.791 195.362 232.794 194.531 234.271 193.053C235.748 191.575 236.579 189.572 236.582 187.482V53.309C236.579 51.2191 235.748 49.2155 234.271 47.7377C232.794 46.2599 230.791 45.4286 228.701 45.4263H156.498Z" fill="#3F3D56"/>
<path d="M184.026 51.1442C183.649 51.1442 183.28 51.0325 182.967 50.823C182.654 50.6136 182.409 50.3159 182.265 49.9676C182.121 49.6194 182.083 49.2361 182.157 48.8664C182.23 48.4967 182.412 48.1571 182.678 47.8905C182.945 47.6239 183.284 47.4424 183.654 47.3689C184.023 47.2953 184.407 47.3331 184.755 47.4773C185.103 47.6216 185.4 47.8659 185.61 48.1793C185.819 48.4928 185.931 48.8613 185.931 49.2382C185.93 49.7436 185.729 50.2281 185.372 50.5854C185.015 50.9427 184.531 51.1437 184.026 51.1442ZM184.026 47.9676C183.774 47.9676 183.529 48.0421 183.32 48.1817C183.111 48.3213 182.948 48.5198 182.852 48.752C182.756 48.9842 182.731 49.2397 182.78 49.4861C182.829 49.7326 182.95 49.959 183.127 50.1367C183.305 50.3144 183.531 50.4355 183.778 50.4845C184.024 50.5335 184.28 50.5084 184.512 50.4122C184.744 50.316 184.942 50.1532 185.082 49.9442C185.221 49.7352 185.296 49.4896 185.296 49.2382C185.295 48.9014 185.161 48.5784 184.923 48.3401C184.685 48.1019 184.362 47.9679 184.026 47.9676Z" fill="#3F3D56"/>
<path d="M202.762 48.9206H188.789V49.5559H202.762V48.9206Z" fill="#3F3D56"/>
<path d="M231.501 54.0032V79.4165C224.763 79.4162 218.301 76.7387 213.537 71.9728C208.773 67.207 206.096 60.7432 206.096 54.0032H231.501Z" fill="#07689F"/>
<path d="M231.818 187.423H153.381V53.6856H231.818V187.423ZM154.016 186.788H231.183V54.3209H154.016V186.788Z" fill="#3F3D56"/>
<path opacity="0.1" d="M213.082 77.8282C217.818 77.8282 221.656 73.9882 221.656 69.2512C221.656 64.5143 217.818 60.6743 213.082 60.6743C208.347 60.6743 204.508 64.5143 204.508 69.2512C204.508 73.9882 208.347 77.8282 213.082 77.8282Z" fill="black"/>
<path d="M211.812 78.7812C216.547 78.7812 220.386 74.9412 220.386 70.2042C220.386 65.4673 216.547 61.6272 211.812 61.6272C207.077 61.6272 203.238 65.4673 203.238 70.2042C203.238 74.9412 207.077 78.7812 211.812 78.7812Z" fill="#07689F"/>
<path d="M168.941 59.0859H156.874V63.5332H168.941V59.0859Z" fill="#3F3D56"/>
<path d="M175.61 101.336H163.543V105.783H175.61V101.336Z" fill="#3F3D56"/>
<path d="M221.974 117.854H163.543V109.595H221.974V117.854ZM164.178 117.219H221.339V110.23H164.178V117.219Z" fill="#3F3D56"/>
<path d="M218.798 135.961H161.003V143.585H218.798V135.961Z" fill="#F0F0F0"/>
<path d="M175.61 125.478H163.543V129.925H175.61V125.478Z" fill="#3F3D56"/>
<path d="M221.974 141.997H163.543V133.737H221.974V141.997ZM164.178 141.361H221.339V134.373H164.178V141.361Z" fill="#3F3D56"/>
<path d="M212.765 158.833H172.752V149.938H212.765V158.833ZM173.387 158.198H212.13V150.574H173.387V158.198Z" fill="#3F3D56"/>
<path d="M220.386 114.677C220.386 115.331 220.184 115.969 219.808 116.504C219.432 117.039 218.9 117.445 218.285 117.667C217.67 117.888 217.001 117.914 216.371 117.741C215.74 117.568 215.179 117.205 214.762 116.701L214.759 116.698C214.455 116.329 214.239 115.897 214.125 115.434C214.011 114.97 214.004 114.487 214.102 114.02C214.201 113.553 214.404 113.114 214.696 112.736C214.987 112.358 215.36 112.051 215.787 111.837C216.214 111.623 216.683 111.509 217.16 111.501C217.637 111.494 218.11 111.594 218.543 111.795C218.976 111.995 219.359 112.291 219.662 112.66C219.965 113.028 220.181 113.461 220.294 113.925C220.294 113.925 220.294 113.925 220.294 113.926C220.294 113.926 220.295 113.927 220.295 113.927C220.295 113.927 220.296 113.927 220.296 113.928C220.296 113.928 220.297 113.928 220.297 113.928C220.356 114.173 220.386 114.425 220.386 114.677Z" fill="#07689F"/>
<path opacity="0.1" d="M220.386 114.677C220.386 115.331 220.184 115.969 219.808 116.504C219.432 117.039 218.9 117.445 218.285 117.667C217.67 117.888 217.001 117.914 216.371 117.741C215.74 117.568 215.179 117.205 214.762 116.701L214.759 116.698C214.7 116.452 214.67 116.201 214.67 115.948C214.67 115.294 214.872 114.656 215.248 114.121C215.624 113.586 216.156 113.18 216.771 112.959C217.386 112.738 218.055 112.712 218.685 112.884C219.316 113.057 219.877 113.42 220.294 113.925C220.294 113.925 220.294 113.925 220.294 113.926C220.294 113.926 220.295 113.927 220.295 113.927C220.295 113.927 220.296 113.927 220.296 113.928C220.296 113.928 220.297 113.928 220.297 113.928C220.356 114.173 220.386 114.425 220.386 114.677Z" fill="black"/>
<path d="M218.481 119.76C220.235 119.76 221.656 118.338 221.656 116.583C221.656 114.829 220.235 113.407 218.481 113.407C216.727 113.407 215.305 114.829 215.305 116.583C215.305 118.338 216.727 119.76 218.481 119.76Z" fill="#07689F"/>
<path d="M220.386 138.82C220.386 139.474 220.184 140.112 219.808 140.647C219.432 141.182 218.9 141.588 218.285 141.809C217.67 142.031 217.001 142.057 216.371 141.884C215.74 141.711 215.179 141.348 214.762 140.844L214.759 140.84C214.455 140.472 214.239 140.04 214.125 139.576C214.011 139.113 214.004 138.629 214.102 138.162C214.201 137.695 214.404 137.257 214.696 136.879C214.987 136.501 215.36 136.194 215.787 135.98C216.214 135.766 216.683 135.651 217.16 135.644C217.637 135.636 218.11 135.737 218.543 135.937C218.976 136.138 219.359 136.434 219.662 136.802C219.965 137.171 220.181 137.603 220.294 138.067C220.294 138.068 220.294 138.068 220.294 138.068C220.294 138.069 220.295 138.069 220.295 138.069C220.295 138.07 220.296 138.07 220.296 138.07C220.296 138.07 220.297 138.07 220.297 138.07C220.356 138.316 220.386 138.568 220.386 138.82Z" fill="#07689F"/>
<path opacity="0.1" d="M220.386 138.82C220.386 139.474 220.184 140.112 219.808 140.647C219.432 141.182 218.9 141.588 218.285 141.809C217.67 142.031 217.001 142.057 216.371 141.884C215.74 141.711 215.179 141.348 214.762 140.844L214.759 140.84C214.7 140.595 214.67 140.343 214.67 140.091C214.67 139.437 214.872 138.799 215.248 138.264C215.624 137.729 216.156 137.323 216.771 137.102C217.386 136.88 218.055 136.854 218.685 137.027C219.316 137.2 219.877 137.563 220.294 138.067C220.294 138.068 220.294 138.068 220.294 138.068C220.294 138.069 220.295 138.069 220.295 138.07C220.295 138.07 220.296 138.07 220.296 138.07C220.296 138.07 220.297 138.07 220.297 138.07C220.356 138.316 220.386 138.568 220.386 138.82Z" fill="black"/>
<path d="M218.481 143.903C220.235 143.903 221.656 142.481 221.656 140.726C221.656 138.972 220.235 137.549 218.481 137.549C216.727 137.549 215.305 138.972 215.305 140.726C215.305 142.481 216.727 143.903 218.481 143.903Z" fill="#07689F"/>
<path d="M165.131 15.248H148.618V31.7666H165.131V15.248Z" fill="#F0F0F0"/>
<path d="M213.082 27.3193C212.329 27.3193 211.592 27.0957 210.965 26.6769C210.338 26.258 209.85 25.6626 209.562 24.9661C209.273 24.2695 209.198 23.5031 209.345 22.7636C209.492 22.0242 209.855 21.3449 210.388 20.8118C210.921 20.2787 211.6 19.9156 212.339 19.7686C213.078 19.6215 213.844 19.697 214.54 19.9855C215.237 20.274 215.832 20.7626 216.251 21.3895C216.669 22.0164 216.893 22.7534 216.893 23.5073C216.892 24.518 216.49 25.4869 215.776 26.2015C215.061 26.9162 214.093 27.3182 213.082 27.3193ZM213.082 20.3306C212.454 20.3306 211.84 20.517 211.318 20.866C210.796 21.2151 210.389 21.7112 210.148 22.2917C209.908 22.8721 209.845 23.5108 209.968 24.127C210.09 24.7433 210.393 25.3093 210.837 25.7536C211.281 26.1978 211.847 26.5004 212.463 26.6229C213.079 26.7455 213.717 26.6826 214.297 26.4422C214.878 26.2017 215.374 25.7946 215.723 25.2722C216.072 24.7498 216.258 24.1356 216.258 23.5073C216.257 22.6651 215.922 21.8577 215.327 21.2621C214.731 20.6666 213.924 20.3316 213.082 20.3306Z" fill="#3F3D56"/>
<path d="M129.247 80.3695H120.99V72.1102H129.247V80.3695ZM121.625 79.7342H128.611V72.7455H121.625V79.7342Z" fill="#3F3D56"/>
<path d="M255 141.997H246.743V133.737H255V141.997ZM247.379 141.361H254.365V134.373H247.379V141.361Z" fill="#3F3D56"/>
<path d="M92.093 86.6169L93.5099 87.3803L98.3311 89.9796L106.115 94.1746L110.651 85.756C111.078 84.965 111.345 84.0975 111.436 83.2031C111.528 82.3087 111.442 81.405 111.185 80.5438C110.927 79.6825 110.501 78.8806 109.933 78.1839C109.365 77.4872 108.665 76.9094 107.874 76.4837C106.182 75.5699 104.244 75.2168 102.339 75.4754C100.434 75.734 98.6603 76.5908 97.2732 77.9224L97.2708 77.9248C96.5884 78.5805 96.0125 79.3387 95.5639 80.1721L92.093 86.6169Z" fill="#2F2E41"/>
<path d="M113.337 172.473L112.386 182.936L108.82 183.412L106.443 171.521L113.337 172.473Z" fill="#FFB8B8"/>
<path d="M107.869 183.412C107.869 183.412 112.386 181.034 113.337 182.936C113.337 182.936 112.624 188.644 115.477 189.357C118.329 190.071 119.518 195.065 115.477 195.541C111.435 196.016 108.82 194.589 107.394 194.589C105.967 194.589 107.394 189.595 107.394 189.595L107.869 183.412Z" fill="#2F2E41"/>
<path d="M84.5711 172.473L85.5222 182.936L89.0881 183.412L91.4653 171.521L84.5711 172.473Z" fill="#FFB8B8"/>
<path d="M90.039 183.412C90.039 183.412 85.522 181.034 84.5711 182.936C84.5711 182.936 85.2843 188.644 82.4315 189.357C79.5787 190.071 78.39 195.065 82.4315 195.541C86.4729 196.016 89.088 194.589 90.5144 194.589C91.9408 194.589 90.5144 189.595 90.5144 189.595L90.039 183.412Z" fill="#2F2E41"/>
<path d="M104.065 88.5242C107.479 88.5242 110.246 85.7559 110.246 82.341C110.246 78.9261 107.479 76.1578 104.065 76.1578C100.652 76.1578 97.8842 78.9261 97.8842 82.341C97.8842 85.7559 100.652 88.5242 104.065 88.5242Z" fill="#FFB8B8"/>
<path d="M84.3333 94.4695L89.3258 102.317L95.2691 101.842L105.016 102.555C105.016 102.555 105.936 100.715 106.687 98.9238C107.099 98.0295 107.415 97.0946 107.631 96.1342C107.869 94.4695 104.541 92.8048 104.541 92.8048C104.541 92.8048 104.41 92.7811 104.191 92.7287C103.901 92.6598 103.454 92.5456 102.965 92.3791C101.859 92.0034 100.53 91.3661 100.262 90.4267C99.786 88.762 103.352 86.3839 103.352 86.3839L99.0728 82.341C99.0728 82.341 95.2715 87.6229 90.6547 88.8262C90.387 88.897 90.1156 88.9525 89.8416 88.9927C89.8274 88.995 89.8155 88.9974 89.8012 88.9998C84.8088 89.7132 84.3333 94.4695 84.3333 94.4695Z" fill="#FFB8B8"/>
<path d="M86.9484 92.3292L84.3334 94.4695C84.3334 94.4695 82.1937 104.696 82.9069 107.549C83.6201 110.403 82.6692 113.019 82.6692 113.495C82.6692 113.97 80.5296 131.806 80.5296 131.806C80.5296 131.806 76.2504 141.319 80.7673 140.368C85.2843 139.416 83.6201 129.904 83.6201 129.904L89.088 113.257V99.2258L86.9484 92.3292Z" fill="#FFB8B8"/>
<path d="M105.729 94.2317L107.631 95.6586L108.582 115.635L115.714 132.758C115.714 132.758 120.944 141.081 117.616 141.319C114.288 141.557 112.148 132.758 112.148 132.758L105.729 116.348L104.778 100.415L105.729 94.2317Z" fill="#FFB8B8"/>
<path d="M93.8427 95.6586C93.8427 95.6586 98.5974 98.988 106.205 97.7989C106.205 97.7989 108.344 102.08 107.156 104.458C105.967 106.836 108.582 112.543 109.058 113.257C109.533 113.97 115.001 128.715 116.903 144.648C118.805 160.582 124.035 171.521 119.518 172.948C115.001 174.375 105.729 176.04 104.778 174.613C103.828 173.186 102.401 137.752 102.401 137.752L99.786 151.307C99.786 151.307 103.352 174.375 100.737 174.851C98.1219 175.326 81.7183 173.899 82.1937 171.046C82.6692 168.192 87.4239 153.21 87.4239 153.21C87.4239 153.21 87.1861 123.245 91.9408 117.537C91.9408 117.537 93.8427 114.446 91.2276 110.403C88.6126 106.36 88.8503 99.9392 88.8503 99.9392C88.8503 99.9392 90.7522 99.9393 93.8427 95.6586Z" fill="#2F2E41"/>
<path d="M89.8416 88.9926L93.8429 97.7989L94.7936 97.3234L90.6546 88.8261L89.8416 88.9926Z" fill="#2F2E41"/>
<path d="M102.965 92.3791L105.967 98.988L106.688 98.9238L106.443 97.7989L104.191 92.7287C103.901 92.6597 103.454 92.5456 102.965 92.3791Z" fill="#2F2E41"/>
<path d="M93.5099 87.3803C93.7385 88.116 94.179 88.7678 94.7763 89.2542C95.3736 89.7406 96.1011 90.0398 96.8676 90.1145C97.6341 90.1891 98.4057 90.0358 99.0855 89.6738C99.7653 89.3119 100.323 88.7572 100.689 88.0795C97.6821 84.146 100.262 81.6751 105.147 79.8059C105.515 79.1227 105.671 78.3454 105.597 77.573C105.522 76.8006 105.219 76.0679 104.726 75.4682C103.38 75.2959 102.012 75.4269 100.722 75.8515C99.4325 76.2761 98.2542 76.9837 97.2732 77.9224L97.2708 77.9248L93.7999 84.3648C93.5527 84.8226 93.3997 85.3253 93.3499 85.8432C93.3001 86.3611 93.3545 86.8837 93.5099 87.3803Z" fill="#2F2E41"/>
<path d="M100.38 84.4813C100.84 84.4813 101.212 83.8425 101.212 83.0544C101.212 82.2664 100.84 81.6276 100.38 81.6276C99.9209 81.6276 99.5483 82.2664 99.5483 83.0544C99.5483 83.8425 99.9209 84.4813 100.38 84.4813Z" fill="#FFB8B8"/>
<path d="M102.86 80.7262L110.006 83.9653L111.316 81.0735C111.09 80.0165 110.618 79.028 109.937 78.1888L105.019 75.9604L102.86 80.7262Z" fill="#2F2E41"/>
<path d="M120.037 144.538C121.791 144.538 123.213 143.116 123.213 141.361C123.213 139.607 121.791 138.185 120.037 138.185C118.284 138.185 116.862 139.607 116.862 141.361C116.862 143.116 118.284 144.538 120.037 144.538Z" fill="#07689F"/>
<path d="M18.0871 163.422C19.2333 163.422 20.1624 162.493 20.1624 161.346C20.1624 160.2 19.2333 159.27 18.0871 159.27C16.9409 159.27 16.0117 160.2 16.0117 161.346C16.0117 162.493 16.9409 163.422 18.0871 163.422Z" fill="#FF6584"/>
<path d="M28.5724 172.166H27.9373V195.804H28.5724V172.166Z" fill="#3F3D56"/>
<path d="M28.2549 175.509C30.1004 175.509 31.5965 174.012 31.5965 172.166C31.5965 170.32 30.1004 168.824 28.2549 168.824C26.4094 168.824 24.9133 170.32 24.9133 172.166C24.9133 174.012 26.4094 175.509 28.2549 175.509Z" fill="#3F3D56"/>
<path d="M28.2549 186.735C28.2549 186.735 27.7775 176.464 17.9914 177.658L28.2549 186.735Z" fill="#3F3D56"/>
</svg>
