<svg width="309" height="178" viewBox="0 0 309 178" fill="none" xmlns="http://www.w3.org/2000/svg">
<g clip-path="url(#clip0)">
<path d="M5.39137 53.4284C4.69525 53.6472 3.95397 53.678 3.24219 53.5178C2.53042 53.3575 1.8733 53.0119 1.33702 52.5157C0.800748 52.0195 0.40426 51.3902 0.187497 50.6913C-0.029267 49.9924 -0.0586503 49.2485 0.102309 48.5346C2.51736 38.4527 11.7005 13.7974 45.155 3.42739C59.6463 -1.06453 73.5436 -1.14121 86.4439 3.19778C97.0565 6.75257 104.102 12.3154 107.472 15.0041C108.328 15.6838 108.88 16.677 109.007 17.7652C109.133 18.8534 108.823 19.9474 108.146 20.8066C108.138 20.8173 108.129 20.8279 108.121 20.8384C107.425 21.7003 106.42 22.2533 105.322 22.3784C104.223 22.5035 103.12 22.1906 102.25 21.5072C96.1441 16.6798 77.6155 2.01437 47.5856 11.3228C18.2634 20.4119 10.2983 41.6719 8.23236 50.37C8.07548 51.0885 7.729 51.7515 7.2292 52.2895C6.72939 52.8276 6.09464 53.2209 5.39138 53.4284L5.39137 53.4284Z" fill="#07689F"/>
<path d="M96.5747 110.533C96.2424 110.64 95.8977 110.705 95.5491 110.726C69.4134 112.139 52.7848 90.3509 52.102 89.4425L51.9755 89.2328C51.5588 88.5842 41.4972 73.2231 45.9267 61.0235C47.9612 55.4462 52.4608 51.5315 59.3385 49.3996C65.7351 47.4168 70.9693 48.0032 75.4245 51.1955C79.0776 53.7965 81.4188 57.6752 83.688 61.4207C88.4074 69.1977 91.2998 73.1545 100.27 70.8717C104.209 69.8685 106.048 66.7785 106.888 64.3714C109.15 57.8213 107.146 48.8917 101.841 42.1359C94.9887 33.3712 75.8112 18.8136 52.1496 26.1481C42.0453 29.2801 33.776 35.4523 28.2382 43.951C23.6506 51.0041 20.9836 59.7641 20.9252 67.9333C20.8331 83.144 33.2564 103.155 33.3742 103.336C33.6602 103.796 33.8534 104.307 33.9426 104.841C34.0318 105.375 34.0153 105.921 33.894 106.449C33.7727 106.976 33.5491 107.475 33.2359 107.916C32.9227 108.357 32.5259 108.731 32.0684 109.018C32.0557 109.026 32.043 109.034 32.0302 109.042C31.0928 109.629 29.9631 109.822 28.885 109.58C27.8069 109.338 26.8669 108.68 26.2681 107.748C25.7074 106.833 12.442 85.4961 12.5489 67.9164C12.6976 48.8615 24.2373 26.1201 49.7102 18.2242C61.4844 14.5745 73.8579 15.1879 85.502 19.9785C94.5271 23.7143 102.88 29.8985 108.402 36.96C115.456 45.9736 117.941 57.7721 114.73 66.9807C112.589 73.1198 108.157 77.3557 102.268 78.8702C86.9175 82.7883 80.9043 72.9235 76.5187 65.7274C72.0152 58.35 69.5242 54.8911 61.7408 57.3037C57.467 58.6285 54.8341 60.7513 53.7267 63.8012C52.2198 67.9705 53.6479 73.3145 55.1113 77.0608C55.1265 77.1 55.1417 77.1391 55.1569 77.1781C57.033 81.9398 59.9607 86.2127 63.72 89.6753C69.7418 95.2555 80.9212 103.211 95.1697 102.444C96.259 102.376 97.3305 102.745 98.1486 103.47C98.9667 104.195 99.4643 105.216 99.532 106.309C99.5328 106.322 99.5335 106.335 99.5342 106.348C99.5677 107.275 99.2959 108.187 98.7609 108.944C98.226 109.7 97.4576 110.258 96.5747 110.533L96.5747 110.533Z" fill="#07689F"/>
<path d="M64.8814 118.365C64.3367 118.535 63.7633 118.591 63.1961 118.532C62.629 118.472 62.0797 118.298 61.5815 118.019C48.691 110.691 39.6417 100.834 33.1253 87.0181L33.099 86.9329C28.9922 77.7215 26.5199 63.648 31.9733 51.7532C35.9993 42.9764 43.5564 36.8072 54.3966 33.4471C67.218 29.4728 79.1562 32.3989 88.9543 41.8683C93.4104 46.2388 97.034 51.3887 99.6473 57.0648C100.064 58.0861 100.063 59.2308 99.6451 60.2515C99.2271 61.2722 98.4254 62.0867 97.4136 62.5189C96.4017 62.9511 95.261 62.9662 94.2381 62.5611C93.2152 62.1559 92.3924 61.3629 91.9476 60.3537C89.735 55.6163 86.6799 51.3235 82.9322 47.6861C75.3799 40.476 66.6005 38.3441 56.8076 41.3797C48.3449 44.0029 42.5175 48.6403 39.5345 55.1649C35.2326 64.5562 37.4474 76.2829 40.6613 83.4999C46.4072 95.7188 54.3771 104.386 65.7225 110.825C66.1911 111.09 66.6032 111.445 66.935 111.87C67.2668 112.295 67.512 112.782 67.6565 113.302C67.801 113.822 67.842 114.365 67.7772 114.901C67.7123 115.437 67.5429 115.955 67.2786 116.426C67.2681 116.444 67.2575 116.463 67.2467 116.481C66.7183 117.382 65.8753 118.053 64.8814 118.365Z" fill="#07689F"/>
<path d="M66.2389 77.0643C69.1838 77.0643 71.5711 74.6688 71.5711 71.7138C71.5711 68.7588 69.1838 66.3633 66.2389 66.3633C63.2941 66.3633 60.9068 68.7588 60.9068 71.7138C60.9068 74.6688 63.2941 77.0643 66.2389 77.0643Z" fill="#E6E6E6"/>
<path d="M162.382 137.048C162.272 137.048 162.162 137.04 162.053 137.023C161.77 136.981 161.499 136.883 161.255 136.735C161.01 136.587 160.797 136.392 160.628 136.161L157.699 132.176C157.53 131.946 157.407 131.684 157.339 131.406C157.27 131.128 157.257 130.839 157.299 130.556C157.342 130.273 157.44 130.001 157.587 129.756C157.735 129.511 157.929 129.297 158.158 129.127L183.199 110.595C183.429 110.425 183.689 110.303 183.967 110.234C184.244 110.165 184.531 110.151 184.814 110.194C185.096 110.237 185.367 110.335 185.611 110.483C185.856 110.631 186.069 110.826 186.238 111.056L189.167 115.041C189.509 115.506 189.653 116.089 189.566 116.661C189.48 117.233 189.172 117.747 188.708 118.09L163.667 136.622C163.295 136.899 162.845 137.048 162.382 137.048Z" fill="#07689F"/>
<path d="M180.166 122.128L176.333 116.913C176.017 116.484 175.885 115.946 175.964 115.418C176.043 114.89 176.329 114.415 176.757 114.099L191.421 101.206C191.849 100.889 192.385 100.756 192.911 100.836C193.437 100.916 193.91 101.202 194.226 101.631L201.234 110.033C201.55 110.462 201.683 111 201.603 111.528C201.524 112.056 201.239 112.531 200.81 112.847L182.971 122.553C182.542 122.87 182.006 123.003 181.48 122.923C180.954 122.843 180.481 122.557 180.166 122.128Z" fill="#2F2E41"/>
<path d="M203.728 177.886H198.793C198.217 177.885 197.665 177.655 197.258 177.247C196.85 176.838 196.621 176.284 196.62 175.705V134.437C196.621 133.859 196.85 133.305 197.258 132.896C197.665 132.487 198.217 132.257 198.793 132.257H203.728C204.304 132.257 204.856 132.487 205.263 132.896C205.671 133.305 205.9 133.859 205.901 134.437V175.705C205.9 176.284 205.671 176.838 205.263 177.247C204.856 177.655 204.304 177.885 203.728 177.886Z" fill="#07689F"/>
<path d="M213.487 177.886H208.553C207.977 177.885 207.424 177.655 207.017 177.247C206.609 176.838 206.38 176.284 206.38 175.705V134.437C206.38 133.859 206.609 133.305 207.017 132.896C207.424 132.487 207.977 132.257 208.553 132.257H213.487C214.063 132.257 214.616 132.487 215.023 132.896C215.431 133.305 215.66 133.859 215.66 134.437V175.705C215.66 176.284 215.431 176.838 215.023 177.247C214.616 177.655 214.063 177.885 213.487 177.886Z" fill="#07689F"/>
<path d="M259.754 177.248H151.422V178H259.754V177.248Z" fill="#3F3D56"/>
<path d="M204.009 83.6209C213.891 83.6209 221.902 75.5825 221.902 65.6666C221.902 55.7507 213.891 47.7123 204.009 47.7123C194.128 47.7123 186.117 55.7507 186.117 65.6666C186.117 75.5825 194.128 83.6209 204.009 83.6209Z" fill="#07689F"/>
<path d="M231.71 156.725L221.348 110.549V99.6387C221.348 98.9269 221.066 98.2442 220.565 97.7409C220.063 97.2376 219.383 96.9549 218.673 96.9549H208.747V89.939C208.747 89.5866 208.678 89.2376 208.544 88.912C208.409 88.5864 208.212 88.2905 207.964 88.0413C207.716 87.7921 207.421 87.5944 207.096 87.4595C206.772 87.3247 206.424 87.2552 206.073 87.2552H200.724C200.372 87.2552 200.024 87.3247 199.7 87.4595C199.375 87.5944 199.081 87.7921 198.832 88.0413C198.584 88.2905 198.387 88.5864 198.252 88.912C198.118 89.2376 198.049 89.5866 198.049 89.939V96.9549H188.123C187.413 96.9549 186.733 97.2376 186.232 97.7409C185.73 98.2442 185.448 98.9269 185.448 99.6387V157.034C185.448 157.378 185.515 157.719 185.643 158.038C185.764 158.611 186.073 159.128 186.52 159.505C186.967 159.882 187.526 160.099 188.11 160.12L230.042 161.523C232.548 161.589 233.685 158.318 231.71 156.725Z" fill="#2F2E41"/>
<path d="M204.181 72.0453C203.076 72.0142 201.701 71.9756 200.641 71.1988C200.326 70.9581 200.067 70.6512 199.882 70.2994C199.697 69.9476 199.591 69.5595 199.571 69.1624C199.552 68.8799 199.598 68.5968 199.706 68.3352C199.814 68.0736 199.981 67.8406 200.193 67.6544C200.747 67.1852 201.556 67.0755 202.426 67.332L201.523 60.7142L202.186 60.6232L203.247 68.403L202.694 68.1484C202.052 67.8529 201.172 67.7029 200.625 68.1668C200.491 68.2881 200.386 68.4388 200.319 68.6074C200.252 68.7759 200.225 68.9577 200.24 69.1384C200.256 69.4341 200.335 69.7227 200.473 69.9848C200.61 70.2468 200.802 70.4761 201.036 70.6569C201.86 71.2614 202.957 71.3397 204.2 71.3744L204.181 72.0453Z" fill="#2F2E41"/>
<path d="M198.247 61.2853H194.646V61.9562H198.247V61.2853Z" fill="#2F2E41"/>
<path d="M209.614 61.2853H206.013V61.9562H209.614V61.2853Z" fill="#2F2E41"/>
<path d="M188.341 54.0616C185.162 52.1287 183.666 48.4622 183.663 44.8359C183.661 42.9031 184.079 40.9931 184.888 39.239C185.697 37.4849 186.878 35.9289 188.347 34.6793C191.621 31.8384 195.98 30.4481 200.239 30.0948C205.392 29.6674 210.512 30.7913 215.433 32.2257C220.702 33.7617 225.865 35.6943 231.259 36.7697C236.494 37.8132 241.742 37.9161 246.895 36.4071C251.652 35.0143 256.479 32.5533 261.56 32.9798C265.948 33.3482 269.28 36.2782 271.522 39.8983C275.972 47.0854 276.324 56.7319 282.724 62.7168C285.491 65.3044 289.096 66.4766 292.699 67.3528C296.154 68.1929 299.839 68.7312 303.009 70.4315C306.409 72.2547 308.467 75.6816 307.935 79.6082C307.331 84.0679 304.169 87.9062 300.687 90.5261C297.021 93.2493 292.797 95.1179 288.321 95.9957C283.844 96.8735 279.23 96.7385 274.812 95.6004C265.574 93.1412 258.067 85.9568 248.224 85.5066C242.733 85.2555 237.327 86.7565 231.837 86.5076C228.032 86.3351 223.937 84.9236 221.287 82.0843C220.015 80.7558 219.22 79.0398 219.028 77.2074C218.968 76.5681 217.965 76.5619 218.025 77.2074C218.401 81.2187 221.344 84.1816 224.855 85.8105C226.704 86.6615 228.677 87.2067 230.699 87.4248C233.386 87.7226 236.125 87.4409 238.799 87.1467C241.626 86.8357 244.457 86.4527 247.307 86.4869C249.908 86.5284 252.486 86.9884 254.942 87.8494C259.658 89.4725 263.906 92.1652 268.411 94.2625C272.772 96.2923 277.338 97.5507 282.167 97.5819C286.822 97.6052 291.427 96.6143 295.663 94.6777C299.835 92.7707 303.755 89.9242 306.352 86.0869C308.787 82.4892 310.066 77.7694 307.874 73.7417C306.157 70.5849 302.881 68.9874 299.578 68.004C295.916 66.9137 292.089 66.4157 288.505 65.058C286.632 64.3825 284.909 63.3453 283.433 62.0051C281.85 60.4632 280.545 58.6572 279.578 56.6674C277.526 52.6507 276.477 48.2392 274.749 44.0903C273.148 40.2472 270.958 36.3736 267.43 34.0052C265.533 32.7465 263.33 32.0328 261.058 31.9415C258.545 31.8274 256.047 32.4063 253.659 33.1359C251.131 33.908 248.664 34.8723 246.117 35.5828C243.434 36.3324 240.653 36.6657 237.87 36.5712C232.145 36.3841 226.616 34.6778 221.197 32.9574C211.703 29.9437 201.145 26.7173 191.601 31.3629C187.882 33.173 184.732 36.2099 183.404 40.1977C182.229 43.7263 182.391 47.8422 184.203 51.1296C185.061 52.6932 186.314 54.0037 187.834 54.9306C188.388 55.2671 188.892 54.3972 188.341 54.0615L188.341 54.0616Z" fill="#2F2E41"/>
<path d="M216.002 143.783H211.068C210.491 143.782 209.939 143.552 209.532 143.143C209.124 142.734 208.895 142.18 208.895 141.602V113.001C208.895 112.423 209.124 111.869 209.532 111.46C209.939 111.051 210.491 110.821 211.068 110.821H216.002C216.578 110.821 217.131 111.051 217.538 111.46C217.945 111.869 218.175 112.423 218.175 113.001V141.602C218.175 142.18 217.945 142.734 217.538 143.143C217.131 143.552 216.578 143.782 216.002 143.783Z" fill="#07689F"/>
<path d="M196.955 49.6192C197.065 50.4076 197.392 51.1496 197.9 51.7613C198.408 52.3731 199.076 52.8304 199.829 53.0815C200.582 53.3327 201.389 53.3678 202.161 53.1828C202.933 52.9979 203.638 52.6003 204.196 52.0348L203.358 51.8128C203.826 53.0131 204.609 54.0634 205.625 54.8515C206.642 55.6396 207.852 56.1358 209.128 56.2873C210.403 56.4388 211.695 56.2397 212.867 55.7114C214.038 55.1831 215.045 54.3454 215.779 53.2878C216.156 52.7613 215.287 52.2583 214.913 52.7798C214.28 53.6685 213.422 54.3707 212.427 54.8135C211.432 55.2562 210.337 55.4233 209.256 55.2972C208.175 55.1712 207.147 54.7566 206.28 54.0967C205.413 53.4369 204.738 52.5558 204.325 51.5453C204.3 51.4618 204.254 51.3861 204.191 51.3255C204.129 51.265 204.052 51.2215 203.968 51.1992C203.884 51.1769 203.795 51.1766 203.711 51.1983C203.627 51.2201 203.55 51.2631 203.487 51.3232C203.052 51.7644 202.501 52.0724 201.898 52.2113C201.295 52.3502 200.665 52.3142 200.082 52.1075C199.498 51.9008 198.986 51.532 198.603 51.0441C198.221 50.5561 197.985 49.9692 197.922 49.3517C197.833 48.713 196.866 48.9847 196.955 49.6192V49.6192Z" fill="#2F2E41"/>
<path d="M165.34 121.07L165.236 121.142L163.294 118.268C163.146 118.049 162.957 117.862 162.738 117.717C162.518 117.572 162.272 117.471 162.014 117.422C161.756 117.372 161.49 117.374 161.232 117.427C160.975 117.48 160.73 117.584 160.513 117.732L154.445 121.86C154.227 122.008 154.041 122.197 153.896 122.418C153.751 122.638 153.651 122.885 153.602 123.144C153.552 123.403 153.554 123.67 153.607 123.928C153.66 124.187 153.763 124.432 153.911 124.651L164.563 140.417C164.71 140.636 164.899 140.823 165.119 140.968C165.339 141.113 165.585 141.213 165.843 141.263C166.101 141.313 166.367 141.311 166.624 141.258C166.882 141.205 167.126 141.101 167.344 140.953L173.412 136.825C173.63 136.677 173.816 136.487 173.961 136.267C174.105 136.047 174.205 135.8 174.255 135.541C174.305 135.281 174.303 135.015 174.25 134.757C174.197 134.498 174.093 134.253 173.946 134.034L166.618 123.187L166.722 123.116L165.34 121.07Z" fill="#3F3D56"/>
<path d="M160.972 118.478L160.205 119C160.299 119.062 160.376 119.147 160.429 119.247C160.483 119.347 160.511 119.458 160.511 119.571C160.512 119.684 160.485 119.796 160.432 119.896C160.379 119.996 160.303 120.082 160.21 120.145L156.845 122.434C156.752 122.498 156.644 122.537 156.532 122.549C156.42 122.561 156.306 122.545 156.202 122.503C156.097 122.461 156.005 122.393 155.932 122.306C155.86 122.22 155.81 122.116 155.786 122.006L155.07 122.493C154.913 122.6 154.778 122.737 154.673 122.896C154.569 123.056 154.497 123.234 154.461 123.421C154.425 123.609 154.426 123.801 154.465 123.988C154.503 124.175 154.578 124.352 154.684 124.51L164.979 139.748C165.086 139.906 165.222 140.042 165.381 140.146C165.54 140.251 165.718 140.324 165.904 140.36C166.091 140.396 166.283 140.394 166.469 140.356C166.655 140.318 166.832 140.243 166.99 140.136L172.891 136.121C173.209 135.905 173.428 135.571 173.5 135.193C173.573 134.814 173.492 134.423 173.277 134.104L162.982 118.866C162.875 118.708 162.739 118.572 162.58 118.467C162.421 118.363 162.243 118.29 162.057 118.254C161.87 118.218 161.678 118.219 161.492 118.258C161.306 118.296 161.129 118.371 160.971 118.478L160.972 118.478Z" fill="white"/>
</g>
<defs>
<clipPath id="clip0">
<rect width="309" height="178" fill="white"/>
</clipPath>
</defs>
</svg>
